<?xml version="1.0" standalone="no"?>
<!DOCTYPE svg PUBLIC "-//W3C//DTD SVG 20010904//EN"
 "http://www.w3.org/TR/2001/REC-SVG-20010904/DTD/svg10.dtd">
<svg version="1.0" xmlns="http://www.w3.org/2000/svg"
 width="801.000000pt" height="801.000000pt" viewBox="0 0 801.000000 801.000000"
 preserveAspectRatio="xMidYMid meet">
<metadata>
Created by potrace 1.14, written by Peter Selinger 2001-2017
</metadata>
<g transform="translate(0.000000,801.000000) scale(0.100000,-0.100000)"
fill="#000000" stroke="none">
<path d="M6116 6773 c-2 -2 -41 -6 -87 -8 -87 -4 -96 -5 -239 -31 -79 -14
-276 -68 -310 -84 -8 -4 -26 -12 -40 -18 -89 -36 -300 -155 -308 -174 -2 -4
-10 -8 -18 -8 -8 0 -14 -4 -14 -8 0 -4 -22 -24 -48 -45 -45 -34 -164 -150
-212 -207 -12 -14 -29 -35 -39 -46 -11 -12 -43 -52 -72 -90 -30 -38 -56 -71
-60 -74 -3 -3 -14 -20 -24 -37 -11 -18 -23 -33 -27 -33 -4 0 -14 -12 -22 -27
-8 -16 -23 -37 -33 -48 -10 -11 -41 -49 -68 -85 -76 -99 -82 -107 -200 -225
-102 -103 -174 -167 -214 -189 -9 -5 -18 -12 -21 -16 -5 -7 -65 -44 -148 -92
-26 -14 -50 -24 -54 -22 -5 3 -8 1 -8 -4 0 -8 -17 -17 -70 -37 -3 -1 -17 -7
-33 -13 -48 -20 -151 -54 -174 -57 -12 -2 -27 -6 -32 -10 -6 -3 -19 -8 -28
-10 -10 -2 -79 -17 -153 -34 -74 -17 -151 -33 -170 -36 -19 -3 -42 -8 -50 -10
-8 -3 -35 -7 -60 -10 -25 -3 -56 -7 -70 -10 -39 -8 -81 -14 -135 -20 -27 -4
-63 -8 -80 -10 -16 -2 -64 -7 -105 -11 -41 -3 -88 -8 -105 -10 -16 -1 -82 -4
-146 -4 l-116 -2 -114 60 c-108 56 -322 177 -344 195 -18 14 -179 117 -195
124 -8 4 -17 9 -20 12 -8 9 -100 71 -105 71 -3 0 -13 7 -22 15 -10 8 -81 58
-158 112 -77 53 -145 102 -152 108 -7 5 -38 28 -69 50 -31 22 -71 52 -89 68
-18 15 -36 27 -39 27 -4 0 -21 13 -39 30 -18 16 -35 30 -39 30 -4 0 -18 10
-32 23 -14 12 -41 33 -61 47 -20 14 -48 35 -63 47 -33 28 -41 29 -36 6 2 -10
13 -63 25 -118 24 -116 27 -130 29 -130 1 0 4 -11 6 -25 2 -14 19 -70 36 -125
18 -55 33 -103 34 -107 1 -5 3 -10 4 -13 1 -3 3 -8 4 -12 4 -18 19 -60 31 -88
7 -16 18 -46 25 -65 8 -19 40 -90 72 -158 32 -68 58 -125 58 -127 0 -3 16 -29
35 -59 19 -30 35 -59 35 -64 0 -7 -100 16 -168 38 -8 3 -10 3 -67 20 -65 19
-264 99 -345 138 -41 20 -78 35 -82 34 -5 -1 -8 3 -8 8 0 6 -4 10 -10 10 -14
0 -204 111 -208 121 -2 5 -8 9 -12 9 -5 0 -29 14 -52 30 -24 17 -54 38 -68 48
-13 9 -32 24 -41 32 -8 8 -30 27 -47 43 l-32 27 4 -27 c3 -16 8 -48 11 -73 11
-79 41 -244 61 -335 2 -11 13 -60 25 -110 11 -49 22 -101 25 -115 3 -14 8 -32
11 -40 3 -8 8 -26 10 -40 2 -14 6 -32 9 -40 3 -8 5 -16 5 -17 0 -2 5 -17 10
-35 11 -35 27 -91 34 -121 6 -28 55 -190 62 -207 8 -20 8 -20 18 -55 4 -16 10
-34 14 -40 3 -5 6 -14 7 -20 7 -35 132 -367 176 -465 19 -42 27 -61 65 -150
41 -95 189 -383 244 -475 17 -27 33 -58 36 -67 3 -10 9 -18 14 -18 5 0 9 -7 9
-15 0 -8 5 -15 10 -15 6 0 10 -5 10 -10 0 -6 23 -44 50 -86 27 -41 50 -80 50
-85 0 -5 4 -9 8 -9 4 0 16 -14 26 -31 18 -31 164 -229 176 -239 3 -3 24 -27
45 -54 65 -81 114 -134 235 -256 100 -101 164 -158 346 -307 21 -18 45 -33 52
-33 6 0 12 -3 12 -7 0 -5 25 -24 55 -43 30 -19 55 -38 55 -42 0 -5 4 -8 9 -8
5 0 45 -22 88 -48 93 -58 318 -172 337 -172 8 0 16 -3 18 -8 6 -15 272 -108
430 -151 67 -18 315 -67 358 -70 8 -1 29 -3 45 -5 194 -28 666 -29 869 -1 17
2 51 7 76 10 25 3 56 7 70 10 14 3 45 8 70 11 25 3 73 12 108 20 34 7 74 16
90 19 15 2 57 13 94 24 36 11 69 17 72 13 3 -3 6 0 6 6 0 7 3 11 8 10 10 -2
91 21 127 37 17 7 57 23 90 35 146 52 435 214 550 307 17 13 48 38 70 56 40
32 227 217 276 272 60 69 171 229 241 345 72 121 178 330 178 354 0 6 7 20 15
30 8 10 12 23 9 27 -3 5 0 9 5 9 6 0 11 6 11 12 0 11 29 91 51 143 12 27 117
349 124 378 2 12 18 69 35 127 17 58 34 116 36 129 3 14 7 28 10 33 3 4 7 16
9 26 6 33 26 107 52 189 13 46 26 91 28 100 2 10 4 18 5 18 1 0 3 7 5 15 6 25
45 133 61 167 7 17 14 38 14 46 0 8 7 20 15 27 9 7 13 15 11 18 -3 3 3 17 14
32 11 15 17 30 13 34 -3 3 -1 6 5 6 7 0 12 5 12 11 0 31 179 238 259 299 18
14 38 30 44 35 42 37 251 145 282 145 7 0 16 4 19 9 3 5 23 12 43 16 52 11 53
11 98 24 41 10 124 22 183 24 17 1 32 6 32 12 0 7 3 7 8 0 4 -5 58 -11 120
-12 103 -1 113 0 106 15 -3 9 -7 24 -8 32 -1 9 -5 21 -10 28 -4 6 -5 12 -2 12
3 0 -3 24 -13 53 -10 28 -19 54 -19 57 0 3 -3 12 -6 20 -3 8 -12 35 -20 60
-82 243 -218 525 -350 722 -44 67 -85 129 -91 137 -5 9 -12 18 -15 21 -3 3
-25 30 -50 60 -52 64 -250 266 -250 255 0 -4 -9 4 -21 19 -11 14 -27 26 -35
26 -8 0 -14 4 -14 8 0 24 -292 192 -385 222 -22 7 -44 16 -50 20 -18 13 -140
44 -219 56 -22 3 -43 7 -46 9 -3 2 -48 7 -100 10 -139 10 -170 11 -174 8z
m344 -786 c8 -3 27 -9 42 -14 70 -21 151 -114 173 -198 35 -133 -53 -296 -183
-338 -84 -28 -188 -18 -236 22 -9 7 -16 11 -16 7 0 -12 -53 41 -82 82 -37 54
-48 91 -49 162 -1 68 33 151 81 198 37 35 110 74 150 80 13 2 26 5 28 6 4 5
75 -1 92 -7z"/>
</g>
</svg>
