<svg width="800" height="800" viewBox="0 0 800 800" fill="none" xmlns="http://www.w3.org/2000/svg">
<path d="M550 666.667C577.614 666.667 600 644.281 600 616.667C600 589.052 577.614 566.667 550 566.667C522.386 566.667 500 589.052 500 616.667C500 644.281 522.386 666.667 550 666.667Z" fill="#032E90"/>
<path d="M316.667 666.667C344.281 666.667 366.667 644.281 366.667 616.667C366.667 589.052 344.281 566.667 316.667 566.667C289.053 566.667 266.667 589.052 266.667 616.667C266.667 644.281 289.053 666.667 316.667 666.667Z" fill="#032E90"/>
<path d="M600 533.333H266.667C259.496 533.334 252.516 531.022 246.763 526.74C241.01 522.459 236.792 516.436 234.733 509.567L141.867 200H100C91.1595 200 82.6811 196.488 76.4299 190.237C70.1786 183.986 66.6667 175.507 66.6667 166.667C66.6667 157.826 70.1786 149.348 76.4299 143.096C82.6811 136.845 91.1595 133.333 100 133.333H166.667C173.838 133.333 180.818 135.645 186.571 139.927C192.323 144.208 196.542 150.231 198.6 157.1L211.467 200H700C705.392 199.995 710.704 201.297 715.481 203.796C720.259 206.294 724.359 209.915 727.43 214.346C730.501 218.777 732.452 223.887 733.114 229.238C733.777 234.589 733.131 240.02 731.233 245.067L631.233 511.733C628.845 518.085 624.575 523.556 618.993 527.416C613.412 531.276 606.786 533.34 600 533.333ZM291.467 466.667H576.9L651.9 266.667H231.467L291.467 466.667Z" fill="#032E90"/>
</svg>
