<svg width="800" height="801" viewBox="0 0 800 801" fill="none" xmlns="http://www.w3.org/2000/svg">
<g clip-path="url(#clip0_11_2)">
<path d="M578.569 127.548C462.464 150.619 470.737 245.094 377.392 284.816C336.059 302.359 240.826 312.966 230.459 308.057C167.223 278.327 74.2206 203.966 74.2206 203.966C74.2206 203.966 82.5283 264.525 114.936 316.81C39.1705 298.891 0 260.131 0 260.131C0 260.131 50.1902 697.432 392.773 676.319C653.478 660.286 637.926 429.552 680.633 362.401C723.271 295.353 800 309.257 800 309.257C800 309.257 753.071 92.9419 578.569 127.548ZM639.575 259.101C623.645 259.101 610.771 246.193 610.771 230.298C610.771 214.404 623.645 201.495 639.575 201.495C655.436 201.495 668.343 214.437 668.343 230.298C668.343 246.159 655.469 259.101 639.575 259.101Z" fill="url(#paint0_linear_11_2)"/>
</g>
<defs>
<linearGradient id="paint0_linear_11_2" x1="400" y1="123.798" x2="400" y2="677.059" gradientUnits="userSpaceOnUse">
<stop stop-color="#0575E6"/>
<stop offset="1" stop-color="#021B79"/>
</linearGradient>
<clipPath id="clip0_11_2">
<rect width="800" height="800" fill="white" transform="translate(0 0.428467)"/>
</clipPath>
</defs>
</svg>
